<svg width="440" height="581" viewBox="0 0 440 581" fill="none" xmlns="http://www.w3.org/2000/svg">
<path fill-rule="evenodd" clip-rule="evenodd" d="M46.1774 123C21.8158 123 3.11166 144.593 6.5864 168.705L61.058 546.705C63.8946 566.389 80.7616 581 100.649 581H346.746C366.894 581 383.898 566.014 386.429 546.025L434.298 168.025C437.324 144.13 418.701 123 394.615 123H46.1774ZM241 187.494H199V516.506H241V187.494ZM112 187.494H154V516.506H112V187.494ZM328 187.494H286V516.506H328V187.494Z" fill="#A20000"/>
<rect y="32" width="440" height="59" rx="29.5" fill="#A10000"/>
<rect x="193" width="63" height="52" rx="26" fill="#A10000"/>
</svg>
