<svg width="568" height="624" viewBox="0 0 568 624" fill="none" xmlns="http://www.w3.org/2000/svg">
<path fill-rule="evenodd" clip-rule="evenodd" d="M323 624C458.31 624 568 514.31 568 379C568 243.69 458.31 134 323 134V234C403.081 234 468 298.919 468 379C468 459.081 403.081 524 323 524V624Z" fill="white"/>
<mask id="path-2-inside-1_1_18" fill="white">
<path d="M59 134H325V234H59V134Z"/>
</mask>
<path d="M59 234H325V34H59V234Z" fill="white" mask="url(#path-2-inside-1_1_18)"/>
<mask id="path-4-inside-2_1_18" fill="white">
<path d="M261 524H327V624H261V524Z"/>
</mask>
<path d="M261 624H327V424H261V624Z" fill="white" mask="url(#path-4-inside-2_1_18)"/>
<path d="M7.32233 178.322C-2.44078 188.085 -2.44078 203.915 7.32233 213.678L166.421 372.777C176.184 382.54 192.014 382.54 201.777 372.777C211.54 363.014 211.54 347.184 201.777 337.421L60.3553 196L201.777 54.5786C211.54 44.8155 211.54 28.9864 201.777 19.2233C192.014 9.4602 176.184 9.4602 166.421 19.2233L7.32233 178.322ZM27 171H25L25 221H27L27 171Z" fill="white"/>
<path d="M53.3223 178.322C43.5592 188.085 43.5592 203.915 53.3223 213.678L212.421 372.777C222.184 382.54 238.014 382.54 247.777 372.777C257.54 363.014 257.54 347.184 247.777 337.421L106.355 196L247.777 54.5786C257.54 44.8155 257.54 28.9864 247.777 19.2233C238.014 9.4602 222.184 9.4602 212.421 19.2233L53.3223 178.322ZM73 171H71V221H73V171Z" fill="white"/>
<circle cx="261" cy="574" r="50" fill="white"/>
<ellipse cx="209.938" cy="358.578" rx="46" ry="34.0284" transform="rotate(172.728 209.938 358.578)" fill="white"/>
<ellipse cx="209.281" cy="34.4071" rx="46" ry="34.0284" transform="rotate(7.98594 209.281 34.4071)" fill="white"/>
</svg>
